<svg id="Layer_1" data-name="Layer 1" xmlns="http://www.w3.org/2000/svg" xmlns:xlink="http://www.w3.org/1999/xlink" viewBox="0 0 128 128"><defs><style>.cls-1{fill:none;}.cls-2{clip-path:url(#clip-path);}.cls-3{clip-path:url(#clip-path-2);}.cls-4{fill:#eac93d;}.cls-5{fill:#e8ab3f;}.cls-6{clip-path:url(#clip-path-3);}.cls-7{clip-path:url(#clip-path-4);}.cls-8{fill:#b28336;}</style><clipPath id="clip-path"/><clipPath id="clip-path-2"><path class="cls-1" d="M57,16.75c6.22,9.18,31.23,52-8.55,96.72,0,0-4.08,16.75,13.58,8.79,0,0,85.13-53,3.06-112.77a2.83,2.83,0,0,0-2.58-.38L61,9.64,52.05,4,48.56,5.71l9.16,7-.49.53A2.82,2.82,0,0,0,57,16.75Z"/></clipPath><clipPath id="clip-path-3"><path class="cls-1" d="M52.05,17.12C54.38,28,61.55,77,7.91,103.62c0,0-10,14,9.31,13.23,0,0,98.78-17.29,45.05-103.43A2.82,2.82,0,0,0,60,12.11L58.44,12l-6.2-8.56-3.86.25,5.86,10-.65.31A2.8,2.8,0,0,0,52.05,17.12Z"/></clipPath><clipPath id="clip-path-4"><path class="cls-1" d="M62.68,17.64c9,6.47,47.26,38,25.38,93.73,0,0,2,17.12,15.78,3.56,0,0,61.59-79.16-36.07-106.9a2.8,2.8,0,0,0-2.55.54L64,9.58,53.66,7.4,51,10.18l11,3.43-.27.67A2.81,2.81,0,0,0,62.68,17.64Z"/></clipPath></defs><title>banana</title><g class="cls-2"><g class="cls-3"><path class="cls-4" d="M57,16.75c6.22,9.18,31.23,52-8.55,96.72,0,0-4.08,16.75,13.58,8.79,0,0,85.13-53,3.06-112.77a2.83,2.83,0,0,0-2.58-.38L61,9.64,52.05,4,48.56,5.71l9.16,7-.49.53A2.82,2.82,0,0,0,57,16.75Z"/><path class="cls-5" d="M70.9,12.72c6.83,10.07,34.25,57-9.37,106.07,0,0-4.48,18.37,14.89,9.64,0,0,93.36-58.14,3.35-123.68a3.1,3.1,0,0,0-2.83-.41l-1.63.58L65.49-1.24,61.67.61l10,7.7-.54.59A3.09,3.09,0,0,0,70.9,12.72Z"/></g><g class="cls-6"><path class="cls-4" d="M52.05,17.12C54.38,28,61.55,77,7.91,103.62c0,0-10,14,9.31,13.23,0,0,98.78-17.29,45.05-103.43A2.82,2.82,0,0,0,60,12.11L58.44,12l-6.2-8.56-3.86.25,5.86,10-.65.31A2.8,2.8,0,0,0,52.05,17.12Z"/><path class="cls-5" d="M66.47,18.6C69,30.49,76.89,84.28,18.07,113.45c0,0-11,15.36,10.2,14.51,0,0,108.34-19,49.41-113.43a3.09,3.09,0,0,0-2.47-1.43L73.48,13l-6.8-9.39-4.24.28,6.43,10.91-.71.34A3.08,3.08,0,0,0,66.47,18.6Z"/></g><g class="cls-7"><path class="cls-4" d="M62.68,17.64c9,6.47,47.26,38,25.38,93.73,0,0,2,17.12,15.78,3.56,0,0,61.59-79.16-36.07-106.9a2.8,2.8,0,0,0-2.55.54L64,9.58,53.66,7.4,51,10.18l11,3.43-.27.67A2.81,2.81,0,0,0,62.68,17.64Z"/><path class="cls-5" d="M74.36,9.05c9.88,7.09,51.82,41.67,27.83,102.78,0,0,2.14,18.78,17.3,3.91,0,0,67.54-86.81-39.55-117.23a3.07,3.07,0,0,0-2.8.59L75.8.21,64.46-2.18,61.51.87,73.6,4.63l-.3.73A3.08,3.08,0,0,0,74.36,9.05Z"/></g><path class="cls-8" d="M46,5.34c.5.5,7.32,6.72,7.32,6.72L63.86,9,52.24,3.48,46.63,4Z"/></g></svg>