<svg id="Layer_1" data-name="Layer 1" xmlns="http://www.w3.org/2000/svg" xmlns:xlink="http://www.w3.org/1999/xlink" viewBox="0 0 128 128"><defs><style>.cls-1{fill:none;}.cls-2{clip-path:url(#clip-path);}.cls-3{fill:#ad4575;}.cls-4{clip-path:url(#clip-path-2);}.cls-5{fill:#87395d;}.cls-6{clip-path:url(#clip-path-3);}.cls-7{clip-path:url(#clip-path-4);}.cls-8{clip-path:url(#clip-path-5);}.cls-9{clip-path:url(#clip-path-6);}.cls-10{clip-path:url(#clip-path-7);}.cls-11{clip-path:url(#clip-path-8);}.cls-12{clip-path:url(#clip-path-9);}.cls-13{clip-path:url(#clip-path-10);}.cls-14{clip-path:url(#clip-path-11);}.cls-15{clip-path:url(#clip-path-12);}.cls-16{clip-path:url(#clip-path-13);}.cls-17{clip-path:url(#clip-path-14);}.cls-18{fill:#3b7236;}.cls-19{fill:#4e9347;}</style><clipPath id="clip-path"/><clipPath id="clip-path-2"><path class="cls-1" d="M55.44,50.8a13,13,0,1,1-13-13A13,13,0,0,1,55.44,50.8Z"/></clipPath><clipPath id="clip-path-3"><path class="cls-1" d="M77,50.8a13,13,0,1,1-13-13A13,13,0,0,1,77,50.8Z"/></clipPath><clipPath id="clip-path-4"><path class="cls-1" d="M98.57,50.8a13,13,0,1,1-13-13A13,13,0,0,1,98.57,50.8Z"/></clipPath><clipPath id="clip-path-5"><circle class="cls-1" cx="42.41" cy="78.8" r="13.03"/></clipPath><clipPath id="clip-path-6"><path class="cls-1" d="M77,78.8a13,13,0,1,1-13-13A13,13,0,0,1,77,78.8Z"/></clipPath><clipPath id="clip-path-7"><circle class="cls-1" cx="85.54" cy="78.8" r="13.03"/></clipPath><clipPath id="clip-path-8"><path class="cls-1" d="M44.66,65.77a13,13,0,1,1-13-13A13,13,0,0,1,44.66,65.77Z"/></clipPath><clipPath id="clip-path-9"><path class="cls-1" d="M66.23,65.77a13,13,0,1,1-13-13A13,13,0,0,1,66.23,65.77Z"/></clipPath><clipPath id="clip-path-10"><path class="cls-1" d="M87.79,65.77a13,13,0,1,1-13-13A13,13,0,0,1,87.79,65.77Z"/></clipPath><clipPath id="clip-path-11"><path class="cls-1" d="M109.35,65.77a13,13,0,1,1-13-13A13,13,0,0,1,109.35,65.77Z"/></clipPath><clipPath id="clip-path-12"><path class="cls-1" d="M86.35,95.69a13,13,0,1,1-13-13A13,13,0,0,1,86.35,95.69Z"/></clipPath><clipPath id="clip-path-13"><path class="cls-1" d="M77,112.1a13,13,0,1,1-13-13A13,13,0,0,1,77,112.1Z"/></clipPath><clipPath id="clip-path-14"><path class="cls-1" d="M66.23,95.69a13,13,0,1,1-13-13A13,13,0,0,1,66.23,95.69Z"/></clipPath></defs><title>grape</title><g class="cls-2"><path class="cls-3" d="M55.44,50.8a13,13,0,1,1-13-13A13,13,0,0,1,55.44,50.8Z"/><g class="cls-4"><rect class="cls-5" x="42.41" y="27.15" width="38.24" height="55.02"/></g><path class="cls-3" d="M77,50.8a13,13,0,1,1-13-13A13,13,0,0,1,77,50.8Z"/><g class="cls-6"><rect class="cls-5" x="63.98" y="27.15" width="38.24" height="55.02"/></g><path class="cls-3" d="M98.57,50.8a13,13,0,1,1-13-13A13,13,0,0,1,98.57,50.8Z"/><g class="cls-7"><rect class="cls-5" x="85.54" y="27.15" width="38.24" height="55.02"/></g><circle class="cls-3" cx="42.41" cy="78.8" r="13.03"/><g class="cls-8"><rect class="cls-5" x="42.41" y="55.15" width="38.24" height="55.02"/></g><path class="cls-3" d="M77,78.8a13,13,0,1,1-13-13A13,13,0,0,1,77,78.8Z"/><g class="cls-9"><rect class="cls-5" x="63.98" y="55.15" width="38.24" height="55.02"/></g><circle class="cls-3" cx="85.54" cy="78.8" r="13.03"/><g class="cls-10"><rect class="cls-5" x="85.54" y="55.15" width="38.24" height="55.02"/></g><path class="cls-3" d="M44.66,65.77a13,13,0,1,1-13-13A13,13,0,0,1,44.66,65.77Z"/><g class="cls-11"><rect class="cls-5" x="31.63" y="42.12" width="38.24" height="55.02"/></g><path class="cls-3" d="M66.23,65.77a13,13,0,1,1-13-13A13,13,0,0,1,66.23,65.77Z"/><g class="cls-12"><rect class="cls-5" x="53.2" y="42.12" width="38.24" height="55.02"/></g><path class="cls-3" d="M87.79,65.77a13,13,0,1,1-13-13A13,13,0,0,1,87.79,65.77Z"/><g class="cls-13"><rect class="cls-5" x="74.76" y="42.12" width="38.24" height="55.02"/></g><path class="cls-3" d="M109.35,65.77a13,13,0,1,1-13-13A13,13,0,0,1,109.35,65.77Z"/><g class="cls-14"><rect class="cls-5" x="96.32" y="42.12" width="38.24" height="55.02"/></g><path class="cls-3" d="M86.35,95.69a13,13,0,1,1-13-13A13,13,0,0,1,86.35,95.69Z"/><g class="cls-15"><rect class="cls-5" x="73.31" y="72.04" width="38.24" height="55.02"/></g><path class="cls-3" d="M77,112.1a13,13,0,1,1-13-13A13,13,0,0,1,77,112.1Z"/><g class="cls-16"><rect class="cls-5" x="63.98" y="88.45" width="38.24" height="55.02"/></g><path class="cls-3" d="M66.23,95.69a13,13,0,1,1-13-13A13,13,0,0,1,66.23,95.69Z"/><g class="cls-17"><rect class="cls-5" x="53.2" y="72.04" width="38.24" height="55.02"/></g><path class="cls-18" d="M66.14,34.16,72.3,29l15.41-1.65L84.5,34.2l15.62,10.41s-8.64,5-8.2,6-1.35,17-1.35,17Z"/><path class="cls-19" d="M66.14,34.16l-6.79,4.29L53.09,52.64l7.51-1,5.16,18s7.41-6.7,8.2-6S90.57,67.6,90.57,67.6Z"/><path class="cls-18" d="M66.14,34.16,72.3,29l15.41-1.65L84.5,34.2l15.62,10.41s-8.64,5-8.2,6-1.35,17-1.35,17Z"/><path class="cls-19" d="M66.14,34.16l-6.79,4.29L53.09,52.64l7.51-1,5.16,18s7.41-6.7,8.2-6S90.57,67.6,90.57,67.6Z"/><path class="cls-18" d="M67.4,33.45l-4.11,5.78-12.8,4.82,1.22-6.57L36.06,32.05s6.27-6.2,5.67-6.93-2.6-14.82-2.6-14.82Z"/><path class="cls-19" d="M67.4,33.45l4.85-5.17,2.21-13.5-6.2,2.49L59.85,3S55,10.37,54.17,9.93s-15,.37-15,.37Z"/><path class="cls-18" d="M67.4,33.45l-4.11,5.78-12.8,4.82,1.22-6.57L36.06,32.05s6.27-6.2,5.67-6.93-2.6-14.82-2.6-14.82Z"/><path class="cls-19" d="M67.4,33.45l4.85-5.17,2.21-13.5-6.2,2.49L59.85,3S55,10.37,54.17,9.93s-15,.37-15,.37Z"/></g></svg>