<svg id="Layer_1" data-name="Layer 1" xmlns="http://www.w3.org/2000/svg" xmlns:xlink="http://www.w3.org/1999/xlink" viewBox="0 0 128 128"><defs><style>.cls-1{clip-path:url(#clip-path);}.cls-2{fill:#f4ad2f;}.cls-3{fill:#e28223;}.cls-4{fill:#b25719;}.cls-5{fill:#934d1d;}.cls-6{fill:#4e9347;}.cls-7{fill:#3b7236;}</style><clipPath id="clip-path"/></defs><title>pear</title><g class="cls-1"><path class="cls-2" d="M63.79,47C40.15,34.36,17,57.6,17,81.9s21,44,46.83,44Z"/><path class="cls-3" d="M63.79,47c25.3-12.59,46.84,10.65,46.84,35s-21,44-46.84,44Z"/><path class="cls-2" d="M63.79,47C40.15,34.36,17,57.6,17,81.9s21,44,46.83,44Z"/><path class="cls-3" d="M63.79,47c25.3-12.59,46.84,10.65,46.84,35s-21,44-46.84,44Z"/><path class="cls-4" d="M71.57,49.65c0,1.55-3.48,5.13-7.78,5.13S56,51.2,56,49.65s3.48-2.81,7.77-2.81S71.57,48.1,71.57,49.65Z"/><path class="cls-5" d="M46.93,26.9s3.4-4.22,6.2-3.64c0,0,13.79,14.76,11.79,27.55H63S65.32,35.37,46.93,26.9Z"/><path class="cls-6" d="M95.53,3,65,33.57S53,9.42,95.53,3Z"/><path class="cls-7" d="M95.53,3,65,33.57S89.11,45.49,95.53,3Z"/></g></svg>