<svg id="Layer_1" data-name="Layer 1" xmlns="http://www.w3.org/2000/svg" xmlns:xlink="http://www.w3.org/1999/xlink" viewBox="0 0 128 128"><defs><style>.cls-1{clip-path:url(#clip-path);}.cls-2{fill:#4e9347;}.cls-3{fill:#3b7236;}.cls-4{fill:#c1682b;}.cls-5{fill:#934d1d;}.cls-6{fill:#723a14;}</style><clipPath id="clip-path"/></defs><title>Untitled-1</title><g class="cls-1"><path class="cls-2" d="M57.44,3.88s5.81,5.5,6.56,8.25V63A112.25,112.25,0,0,0,34.58,48.32s19.66-.46,22.86,3.43c0,0-5.6-10.53-12.32-12.37,0,0,9.08.92,11.13,3.44,0,0-5.75-11.22-13.71-13.51,0,0,11.7.45,14.9,5.95,0,0-2.23-11-8.15-13.28,0,0,9.07-.46,10.51,3.43,0,0-1.09-6.18-5.39-8.7,0,0,5.65-.23,6.82,1.83C61.23,18.54,58.87,7.54,57.44,3.88Z"/><path class="cls-3" d="M70.56,3.88S64.75,9.38,64,12.13V63A112.25,112.25,0,0,1,93.42,48.32s-19.66-.46-22.86,3.43c0,0,5.6-10.53,12.33-12.37,0,0-9.09.92-11.14,3.44,0,0,5.75-11.22,13.71-13.51,0,0-11.7.45-14.9,5.95,0,0,2.23-11,8.15-13.28,0,0-9.07-.46-10.51,3.43,0,0,1.09-6.18,5.39-8.7,0,0-5.65-.23-6.82,1.83C66.77,18.54,69.13,7.54,70.56,3.88Z"/><path class="cls-2" d="M57.44,3.88s5.81,5.5,6.56,8.25V63A112.25,112.25,0,0,0,34.58,48.32s19.66-.46,22.86,3.43c0,0-5.6-10.53-12.32-12.37,0,0,9.08.92,11.13,3.44,0,0-5.75-11.22-13.71-13.51,0,0,11.7.45,14.9,5.95,0,0-2.23-11-8.15-13.28,0,0,9.07-.46,10.51,3.43,0,0-1.09-6.18-5.39-8.7,0,0,5.65-.23,6.82,1.83C61.23,18.54,58.87,7.54,57.44,3.88Z"/><path class="cls-3" d="M70.56,3.88S64.75,9.38,64,12.13V63A112.25,112.25,0,0,1,93.42,48.32s-19.66-.46-22.86,3.43c0,0,5.6-10.53,12.33-12.37,0,0-9.09.92-11.14,3.44,0,0,5.75-11.22,13.71-13.51,0,0-11.7.45-14.9,5.95,0,0,2.23-11,8.15-13.28,0,0-9.07-.46-10.51,3.43,0,0,1.09-6.18,5.39-8.7,0,0-5.65-.23-6.82,1.83C66.77,18.54,69.13,7.54,70.56,3.88Z"/><path class="cls-4" d="M64,57.51c-28.41,0-26.94,25.66-26.94,40.55A26.94,26.94,0,0,0,64,125Z"/><path class="cls-5" d="M64,57.51c28.41,0,26.94,25.66,26.94,40.55A26.94,26.94,0,0,1,64,125Z"/><path class="cls-4" d="M64,57.51c-28.41,0-26.94,25.66-26.94,40.55A26.94,26.94,0,0,0,64,125Z"/><path class="cls-5" d="M64,57.51c28.41,0,26.94,25.66,26.94,40.55A26.94,26.94,0,0,1,64,125Z"/><path class="cls-6" d="M44.4,108.66s4-3,6.82-2.56,5.42,4.63,5.42,4.63a47.55,47.55,0,0,1-5.74-1C48.59,109.05,49.69,107.22,44.4,108.66Z"/><path class="cls-6" d="M71.36,98.5s4-3,6.82-2.55,5.42,4.62,5.42,4.62a48.47,48.47,0,0,1-5.74-1C75.55,98.9,76.65,97.06,71.36,98.5Z"/><path class="cls-6" d="M57.88,103.18s3.95-3,6.82-2.56,5.42,4.63,5.42,4.63a47.2,47.2,0,0,1-5.74-1C62.07,103.57,63.17,101.74,57.88,103.18Z"/><path class="cls-6" d="M43,93.86s3.95-3,6.82-2.55,5.42,4.62,5.42,4.62a47.55,47.55,0,0,1-5.74-1C47.15,94.26,48.25,92.42,43,93.86Z"/><path class="cls-6" d="M57.88,82.86s3.95-3,6.82-2.55,5.42,4.63,5.42,4.63a47.2,47.2,0,0,1-5.74-1C62.07,83.26,63.17,81.43,57.88,82.86Z"/><path class="cls-6" d="M68.77,113.33s4-3,6.83-2.55S81,115.4,81,115.4a46.31,46.31,0,0,1-5.74-1C73,113.73,74.07,111.9,68.77,113.33Z"/><path class="cls-6" d="M73.47,85.2s4-3,6.82-2.55,5.43,4.62,5.43,4.62a46.67,46.67,0,0,1-5.75-1C77.66,85.6,78.76,83.77,73.47,85.2Z"/><path class="cls-6" d="M41.2,82.86s4-3,6.83-2.55,5.42,4.63,5.42,4.63a47.2,47.2,0,0,1-5.74-1C45.4,83.26,46.5,81.43,41.2,82.86Z"/><path class="cls-6" d="M68.77,69.91s4-3,6.83-2.55S81,72,81,72a47.2,47.2,0,0,1-5.74-1C73,70.31,74.07,68.48,68.77,69.91Z"/><path class="cls-6" d="M49.08,67.58s4-3,6.82-2.55,5.43,4.62,5.43,4.62a47.2,47.2,0,0,1-5.74-1C53.27,68,54.38,66.14,49.08,67.58Z"/></g></svg>