<svg id="Layer_1" data-name="Layer 1" xmlns="http://www.w3.org/2000/svg" xmlns:xlink="http://www.w3.org/1999/xlink" viewBox="0 0 128 128"><defs><style>.cls-1{clip-path:url(#clip-path);}.cls-2{fill:#4e9347;}.cls-3{fill:#3b7236;}.cls-4{fill:#f2223c;}.cls-5{fill:#e20c30;}.cls-6{fill:#ad0025;}</style><clipPath id="clip-path"/></defs><title>strawberry</title><g class="cls-1"><path class="cls-2" d="M64,7.21c-1.83,2-10,11.47-7.08,22.93-6-6.87-16.89-15.87-34.59-19.41,0,0-2.59,22.92,29,31.14l10.28-2.66c.14.16.25.33.39.5h2Z"/><path class="cls-3" d="M64,7.21c1.83,2,10,11.47,7.08,22.93,6-6.87,16.89-15.87,34.59-19.41,0,0,2.59,22.92-29,31.14L66.44,39.21c-.14.16-.25.33-.39.5H64Z"/><path class="cls-2" d="M64,7.21c-1.83,2-10,11.47-7.08,22.93-6-6.87-16.89-15.87-34.59-19.41,0,0-2.59,22.92,29,31.14l10.28-2.66c.14.16.25.33.39.5h2Z"/><path class="cls-3" d="M64,7.21c1.83,2,10,11.47,7.08,22.93,6-6.87,16.89-15.87,34.59-19.41,0,0,2.59,22.92-29,31.14L66.44,39.21c-.14.16-.25.33-.39.5H64Z"/><path class="cls-4" d="M63,38.41c-20.67.18-37.27,5.8-37.27,26.6S42.35,119.92,63,121Z"/><path class="cls-5" d="M63,38.41c20.68.18,37.27,5.8,37.27,26.6S83.7,119.92,63,121Z"/><path class="cls-4" d="M63,38.41c-20.67.18-37.27,5.8-37.27,26.6S42.35,119.92,63,121Z"/><path class="cls-5" d="M63,38.41c20.68.18,37.27,5.8,37.27,26.6S83.7,119.92,63,121Z"/><path class="cls-6" d="M93.23,63.07c0,2.62-1.26,4.75-2.82,4.75s-2.81-2.13-2.81-4.75,1.26-4.76,2.81-4.76S93.23,60.44,93.23,63.07Z"/><path class="cls-6" d="M39.37,55.71c0,2.63-1.25,4.76-2.81,4.76s-2.81-2.13-2.81-4.76S35,51,36.56,51,39.37,53.08,39.37,55.71Z"/><path class="cls-6" d="M77.22,102c0,2.63-1.26,4.76-2.81,4.76S71.6,104.62,71.6,102s1.26-4.75,2.81-4.75S77.22,99.37,77.22,102Z"/><path class="cls-6" d="M62,99.83c0,2.63-1.26,4.76-2.81,4.76s-2.81-2.13-2.81-4.76,1.26-4.76,2.81-4.76S62,97.2,62,99.83Z"/><path class="cls-6" d="M42.19,77.34c0,2.63-1.26,4.76-2.82,4.76S36.56,80,36.56,77.34s1.26-4.76,2.81-4.76S42.19,74.71,42.19,77.34Z"/><path class="cls-6" d="M48.42,99.55c0,2.63-1.26,4.76-2.81,4.76s-2.82-2.13-2.82-4.76,1.26-4.76,2.82-4.76S48.42,96.92,48.42,99.55Z"/><path class="cls-6" d="M71.73,72.58c0,2.63-1.26,4.76-2.81,4.76s-2.81-2.13-2.81-4.76,1.26-4.76,2.81-4.76S71.73,70,71.73,72.58Z"/><ellipse class="cls-6" cx="53.52" cy="77.34" rx="2.81" ry="4.76"/><path class="cls-6" d="M88.2,82.1c0,2.63-1.25,4.76-2.81,4.76s-2.81-2.13-2.81-4.76,1.26-4.76,2.81-4.76S88.2,79.47,88.2,82.1Z"/><path class="cls-6" d="M80,53.55c0,2.63-1.26,4.76-2.81,4.76s-2.81-2.13-2.81-4.76,1.26-4.76,2.81-4.76S80,50.92,80,53.55Z"/><path class="cls-6" d="M59.14,51c0,2.63-1.26,4.76-2.81,4.76S53.52,53.58,53.52,51s1.25-4.75,2.81-4.75S59.14,48.33,59.14,51Z"/></g></svg>