<svg id="Layer_1" data-name="Layer 1" xmlns="http://www.w3.org/2000/svg" xmlns:xlink="http://www.w3.org/1999/xlink" viewBox="0 0 128 128"><defs><style>.cls-1{clip-path:url(#clip-path);}.cls-2{fill:#4e9347;}.cls-3{fill:#f4c3c3;}.cls-4{fill:#f24c4c;}.cls-5{fill:#e83434;}.cls-6{fill:#f93e3e;}.cls-7{fill:#d82727;}.cls-8{fill:#3a3a3a;}</style><clipPath id="clip-path"/></defs><title>watermelon</title><g class="cls-1"><path class="cls-2" d="M48.5,41.68a5.81,5.81,0,0,1-7.16,2.25,6.54,6.54,0,0,1-.79-.41,5.79,5.79,0,0,1-8.29-1.74,5.78,5.78,0,0,1-7.09-5.54,5.82,5.82,0,0,1-3.08-5.72L5.66,23.58A65.56,65.56,0,0,0,125,74Z"/><path class="cls-3" d="M48.5,41.68a5.81,5.81,0,0,1-7.16,2.25,6.54,6.54,0,0,1-.79-.41,5.79,5.79,0,0,1-8.29-1.74,5.78,5.78,0,0,1-7.09-5.54,5.82,5.82,0,0,1-3.08-5.72L9.52,25.21A61.32,61.32,0,0,0,121.14,72.38Z"/><path class="cls-4" d="M65.33,48.79,48.5,41.68a5.81,5.81,0,0,1-7.16,2.25,6.54,6.54,0,0,1-.79-.41,5.79,5.79,0,0,1-8.29-1.74,5.78,5.78,0,0,1-7.09-5.54,5.82,5.82,0,0,1-3.08-5.72l-9.47-4a57.93,57.93,0,0,0,33.64,67.4Z"/><path class="cls-5" d="M109.43,67.43l-.86-.36L82.16,55.91,65.33,48.79,59.87,61.71,46.26,93.92A57.92,57.92,0,0,0,118,71.07Z"/><path class="cls-6" d="M65.33,48.79,48.5,41.68a5.81,5.81,0,0,1-7.16,2.25,6.54,6.54,0,0,1-.79-.41,5.79,5.79,0,0,1-8.29-1.74,5.78,5.78,0,0,1-7.09-5.54,5.82,5.82,0,0,1-3.08-5.72l-9.47-4a57.93,57.93,0,0,0,33.64,67.4Z"/><path class="cls-7" d="M109.43,67.43l-.86-.36L82.16,55.91,65.33,48.79,59.87,61.71,46.26,93.92A57.92,57.92,0,0,0,118,71.07Z"/><path class="cls-8" d="M27,45.89c.26.81-.66,1.83-2.06,2.28s-2.74.16-3-.65.66-1.83,2.06-2.28S26.77,45.08,27,45.89Z"/><path class="cls-8" d="M103.62,76.59c.26.81-.66,1.83-2.05,2.28s-2.74.16-3-.65.66-1.82,2.06-2.28S103.36,75.78,103.62,76.59Z"/><path class="cls-8" d="M27.47,58.8c-.74.43-1.93-.25-2.67-1.52s-.75-2.64,0-3.07,1.92.25,2.66,1.52S28.2,58.37,27.47,58.8Z"/><path class="cls-8" d="M17.55,37.73c-.74.43-1.93-.25-2.67-1.52s-.75-2.64,0-3.07,1.93.25,2.67,1.52S18.28,37.3,17.55,37.73Z"/><path class="cls-8" d="M54.15,56.58c0,.85-1.26,1.48-2.72,1.41s-2.62-.82-2.58-1.67,1.26-1.48,2.72-1.41S54.2,55.73,54.15,56.58Z"/><path class="cls-8" d="M77.25,87.84c0,.85-1.26,1.48-2.72,1.41s-2.63-.81-2.59-1.66,1.27-1.48,2.73-1.41S77.29,87,77.25,87.84Z"/><path class="cls-8" d="M94.07,88.1c0,.85-1.26,1.48-2.72,1.41s-2.62-.82-2.58-1.67,1.26-1.48,2.72-1.41S94.11,87.25,94.07,88.1Z"/><path class="cls-8" d="M81.77,61.82c0,.85-1.26,1.48-2.72,1.41s-2.63-.82-2.58-1.66,1.26-1.48,2.72-1.41S81.81,61,81.77,61.82Z"/><path class="cls-8" d="M67,76.61c-.62.58-1.94.2-3-.86s-1.34-2.4-.73-3,1.94-.21,3,.85S67.65,76,67,76.61Z"/><path class="cls-8" d="M93.1,70.6c-.61.59-1.93.21-2.95-.85s-1.33-2.4-.72-3,1.93-.2,2.95.86S93.72,70,93.1,70.6Z"/><path class="cls-8" d="M67.34,59.72c-.61.58-1.93.2-3-.86s-1.33-2.4-.72-3,1.93-.21,3,.85S68,59.13,67.34,59.72Z"/><path class="cls-8" d="M53.24,72.67c-.61.59-1.93.21-3-.85s-1.33-2.4-.72-3,1.93-.2,3,.86S53.86,72.09,53.24,72.67Z"/><path class="cls-8" d="M61.75,93.12c-.61.59-1.93.21-2.94-.85s-1.34-2.4-.73-3,1.94-.2,3,.86S62.37,92.54,61.75,93.12Z"/><path class="cls-8" d="M44.69,80c-.61.59-1.93.2-2.95-.86s-1.34-2.39-.72-3S43,76,44,77,45.3,79.4,44.69,80Z"/><path class="cls-8" d="M64.89,67c-.61.59-1.93.21-3-.85s-1.34-2.4-.72-3,1.93-.2,3,.86S65.5,66.44,64.89,67Z"/><path class="cls-8" d="M83.58,74.57c0,.85-1.2,1.53-2.67,1.52s-2.65-.71-2.65-1.56S79.47,73,80.93,73,83.58,73.72,83.58,74.57Z"/><path class="cls-8" d="M39.42,62.69c0,.85-1.21,1.53-2.67,1.52s-2.65-.71-2.65-1.56,1.2-1.53,2.67-1.52S39.42,61.84,39.42,62.69Z"/><path class="cls-8" d="M34.43,74.48c0,.85-1.2,1.53-2.67,1.52s-2.65-.71-2.64-1.56,1.2-1.53,2.67-1.52S34.44,73.63,34.43,74.48Z"/></g></svg>